<svg xmlns="http://www.w3.org/2000/svg" xmlns:xlink="http://www.w3.org/1999/xlink" width="2000" zoomAndPan="magnify" viewBox="0 0 1500 1499.999933" height="2000" preserveAspectRatio="xMidYMid meet" version="1.0"><defs><clipPath id="3cee4a3750"><path d="M 742 656 L 807 656 L 807 739 L 742 739 Z M 742 656 " clip-rule="nonzero"/></clipPath><clipPath id="b61bf04f04"><path d="M 726.886719 665.132812 L 803.628906 651.171875 L 818.527344 733.078125 L 741.789062 747.039062 Z M 726.886719 665.132812 " clip-rule="nonzero"/></clipPath><clipPath id="5fa7413cc8"><path d="M 726.886719 665.132812 L 803.628906 651.171875 L 818.527344 733.078125 L 741.789062 747.039062 Z M 726.886719 665.132812 " clip-rule="nonzero"/></clipPath><clipPath id="852c64bb50"><path d="M 747 659 L 775 659 L 775 705 L 747 705 Z M 747 659 " clip-rule="nonzero"/></clipPath><clipPath id="7d18648e09"><path d="M 726.886719 665.132812 L 803.628906 651.171875 L 818.527344 733.078125 L 741.789062 747.039062 Z M 726.886719 665.132812 " clip-rule="nonzero"/></clipPath><clipPath id="af5de42e4d"><path d="M 726.886719 665.132812 L 803.628906 651.171875 L 818.527344 733.078125 L 741.789062 747.039062 Z M 726.886719 665.132812 " clip-rule="nonzero"/></clipPath><clipPath id="62805b44dc"><path d="M 705 726.476562 L 770 726.476562 L 770 777 L 705 777 Z M 705 726.476562 " clip-rule="nonzero"/></clipPath><clipPath id="16727f7f0e"><path d="M 614.4375 781 L 772.6875 781 L 772.6875 871.226562 L 614.4375 871.226562 Z M 614.4375 781 " clip-rule="nonzero"/></clipPath></defs><rect x="-150" width="1800" fill="#ffffff" y="-149.999993" height="1799.99992" fill-opacity="1"/><rect x="-150" width="1800" fill="#f5f0e8" y="-149.999993" height="1799.99992" fill-opacity="1"/><g clip-path="url(#3cee4a3750)"><g clip-path="url(#b61bf04f04)"><g clip-path="url(#5fa7413cc8)"><path fill="#c4a96a" d="M 804.109375 695.910156 C 809.378906 682.082031 805.367188 665.824219 798.683594 656.910156 C 798.390625 656.519531 797.910156 656.3125 797.417969 656.371094 C 796.929688 656.429688 796.511719 656.742188 796.316406 657.191406 C 791.503906 668.332031 786.6875 676.078125 779.484375 686.480469 C 772.722656 696.261719 765.722656 706.371094 760.546875 707.3125 C 759.203125 707.558594 757.75 706.84375 756.207031 706.082031 C 754.476562 705.238281 752.515625 704.273438 750.40625 704.65625 C 747.421875 705.199219 745.078125 708.140625 742.800781 714.179688 C 742.621094 714.644531 742.714844 715.171875 743.03125 715.550781 C 743.347656 715.929688 743.847656 716.113281 744.335938 716.023438 C 752.183594 714.597656 754.542969 717.285156 757.28125 720.402344 C 760.058594 723.574219 763.199219 727.152344 771.910156 725.828125 C 772.394531 726.558594 772.875 727.410156 773.371094 728.289062 C 776.097656 733.105469 779.828125 739.699219 790.570312 737.746094 C 792.164062 737.453125 793.894531 736.976562 795.714844 736.320312 C 807.308594 732.15625 806.703125 726.234375 806.238281 724.523438 C 805.148438 720.460938 800.222656 717.890625 795.257812 718.792969 C 791.628906 719.453125 783.410156 720.320312 781.308594 715.179688 C 795.300781 711.859375 801.425781 702.9375 804.109375 695.910156 Z M 804.109375 695.910156 " fill-opacity="1" fill-rule="nonzero"/></g></g></g><g clip-path="url(#852c64bb50)"><g clip-path="url(#7d18648e09)"><g clip-path="url(#af5de42e4d)"><path fill="#c4a96a" d="M 748.703125 702.316406 C 749.101562 702.183594 749.484375 702.023438 749.914062 701.945312 C 752.914062 701.402344 755.515625 702.679688 757.417969 703.609375 C 758.289062 704.039062 759.601562 704.683594 760.050781 704.601562 C 763.566406 703.964844 769.730469 695.644531 774.914062 688.234375 C 775.003906 678.878906 771.472656 669.585938 767.609375 664.261719 C 765.21875 660.972656 762.863281 659.429688 760.800781 659.804688 C 760.4375 659.871094 760.121094 660.078125 759.910156 660.375 C 758.941406 661.773438 758.636719 663.898438 758.222656 666.835938 C 757.46875 672.09375 756.335938 680.046875 750.257812 688.828125 C 746.65625 694.03125 747.125 698.359375 748.148438 701.078125 C 748.3125 701.507812 748.503906 701.921875 748.703125 702.316406 Z M 748.703125 702.316406 " fill-opacity="1" fill-rule="nonzero"/></g></g></g><g clip-path="url(#62805b44dc)"><path fill="#c4a96a" d="M 705.558594 776.464844 C 705.359375 776.464844 705.199219 776.308594 705.199219 776.109375 C 705.195312 776.003906 705.242188 775.90625 705.320312 775.839844 C 711.578125 770.117188 720.253906 761.917969 731.335938 751.253906 C 733.769531 748.914062 736.304688 746.28125 738.949219 743.351562 C 739.332031 742.925781 739.457031 742.328125 739.285156 741.78125 C 735.261719 729.011719 746.917969 722.53125 757.246094 729.078125 C 760.0625 730.863281 762.683594 733.035156 765.117188 735.597656 C 773.375 744.292969 770.027344 756.179688 756.917969 755.476562 C 756.136719 755.433594 755.390625 755.800781 754.949219 756.449219 L 741.878906 775.847656 C 741.617188 776.234375 741.183594 776.464844 740.71875 776.464844 Z M 705.558594 776.464844 " fill-opacity="1" fill-rule="nonzero"/></g><g clip-path="url(#16727f7f0e)"><path fill="#c4a96a" d="M 655.847656 858.960938 L 655.707031 854.667969 C 655.695312 854.253906 655.464844 853.878906 655.101562 853.675781 C 629.511719 839.472656 615.855469 812.621094 614.445312 783.601562 C 614.363281 781.953125 615.140625 781.132812 616.769531 781.144531 C 634.347656 781.285156 673.613281 781.25 734.566406 781.035156 C 746.855469 780.996094 758.683594 781.058594 770.042969 781.226562 C 771.894531 781.257812 772.796875 782.128906 772.757812 783.839844 C 772.433594 797.394531 768.9375 810.429688 762.273438 822.945312 C 755.230469 836.175781 745.050781 846.445312 731.734375 853.746094 C 731.371094 853.941406 731.148438 854.316406 731.144531 854.730469 L 731.144531 858.554688 C 731.144531 859.027344 731.492188 859.429688 731.960938 859.5 C 738.589844 860.484375 738.261719 865.78125 737.84375 870.917969 C 737.816406 871.253906 737.53125 871.515625 737.1875 871.515625 L 649.746094 871.515625 C 649.410156 871.515625 649.121094 871.289062 649.046875 870.96875 C 648.347656 867.972656 648.554688 865.132812 649.675781 862.449219 C 649.875 861.964844 650.226562 861.554688 650.679688 861.277344 C 652.292969 860.3125 653.832031 859.75 655.289062 859.597656 C 655.613281 859.558594 655.855469 859.28125 655.847656 858.960938 Z M 655.847656 858.960938 " fill-opacity="1" fill-rule="nonzero"/></g></svg>