<svg xmlns="http://www.w3.org/2000/svg" xmlns:xlink="http://www.w3.org/1999/xlink" width="2000" zoomAndPan="magnify" viewBox="0 0 1500 1499.999933" height="2000" preserveAspectRatio="xMidYMid meet" version="1.0"><defs><g/><clipPath id="a7118e4321"><rect x="0" width="805" y="0" height="251"/></clipPath><clipPath id="c49822b98b"><path d="M 1 0.238281 L 308.839844 0.238281 L 308.839844 55 L 1 55 Z M 1 0.238281 " clip-rule="nonzero"/></clipPath><clipPath id="9a37d2c692"><rect x="0" width="309" y="0" height="56"/></clipPath></defs><rect x="-150" width="1800" fill="#ffffff" y="-149.999993" height="1799.99992" fill-opacity="1"/><rect x="-150" width="1800" fill="#f5f0e8" y="-149.999993" height="1799.99992" fill-opacity="1"/><g transform="matrix(1, 0, 0, 1, 352, 664)"><g clip-path="url(#a7118e4321)"><g fill="#303343" fill-opacity="1"><g transform="translate(6.943235, 195.877796)"><g><path d="M 144.234375 -33.890625 C 142.617188 -27.972656 141.8125 -23.265625 141.8125 -19.765625 C 141.8125 -15.191406 143.257812 -12.097656 146.15625 -10.484375 C 149.050781 -8.867188 153.722656 -8.0625 160.171875 -8.0625 L 157.75 0 L 93.40625 0 L 95.625 -8.0625 C 99.65625 -8.0625 103.082031 -8.363281 105.90625 -8.96875 C 108.726562 -9.582031 111.179688 -10.757812 113.265625 -12.5 C 115.359375 -14.25 117.144531 -16.671875 118.625 -19.765625 C 120.101562 -22.859375 121.515625 -26.894531 122.859375 -31.875 L 133.953125 -74.03125 L 55.671875 -74.03125 L 45.1875 -33.890625 C 43.570312 -27.972656 42.765625 -23.265625 42.765625 -19.765625 C 42.765625 -15.191406 44.207031 -12.097656 47.09375 -10.484375 C 49.988281 -8.867188 54.734375 -8.0625 61.328125 -8.0625 L 58.703125 0 L -5.65625 0 L -3.421875 -8.0625 C 0.609375 -8.0625 4.035156 -8.363281 6.859375 -8.96875 C 9.679688 -9.582031 12.132812 -10.757812 14.21875 -12.5 C 16.300781 -14.25 18.082031 -16.671875 19.5625 -19.765625 C 21.039062 -22.859375 22.453125 -26.894531 23.796875 -31.875 L 47.40625 -121.046875 C 49.425781 -128.441406 50.4375 -133.953125 50.4375 -137.578125 C 50.4375 -141.753906 48.921875 -144.410156 45.890625 -145.546875 C 42.867188 -146.691406 37.726562 -147.265625 30.46875 -147.265625 L 32.6875 -155.328125 L 98.25 -155.328125 L 96.03125 -147.265625 C 91.59375 -147.265625 87.890625 -146.828125 84.921875 -145.953125 C 81.960938 -145.078125 79.40625 -143.425781 77.25 -141 C 75.101562 -138.582031 73.191406 -135.222656 71.515625 -130.921875 C 69.835938 -126.617188 68.125 -121.039062 66.375 -114.1875 L 58.5 -84.328125 L 136.78125 -84.328125 L 146.453125 -121.046875 C 148.472656 -128.441406 149.484375 -133.953125 149.484375 -137.578125 C 149.484375 -141.753906 147.96875 -144.410156 144.9375 -145.546875 C 141.914062 -146.691406 136.773438 -147.265625 129.515625 -147.265625 L 131.734375 -155.328125 L 197.296875 -155.328125 L 195.078125 -147.265625 C 190.640625 -147.265625 186.941406 -146.828125 183.984375 -145.953125 C 181.023438 -145.078125 178.46875 -143.425781 176.3125 -141 C 174.164062 -138.582031 172.25 -135.222656 170.5625 -130.921875 C 168.882812 -126.617188 167.171875 -121.039062 165.421875 -114.1875 Z M 144.234375 -33.890625 "/></g></g></g><g fill="#303343" fill-opacity="1"><g transform="translate(157.434016, 195.877796)"><g><path d="M -3.03125 -8.0625 C 1.40625 -8.0625 5.070312 -8.398438 7.96875 -9.078125 C 10.863281 -9.753906 13.285156 -11 15.234375 -12.8125 C 17.179688 -14.625 18.828125 -17.039062 20.171875 -20.0625 C 21.515625 -23.09375 22.789062 -27.03125 24 -31.875 L 47.40625 -120.84375 C 48.34375 -124.332031 49.046875 -127.351562 49.515625 -129.90625 C 49.992188 -132.46875 50.234375 -134.691406 50.234375 -136.578125 C 50.234375 -141.015625 48.6875 -143.90625 45.59375 -145.25 C 42.5 -146.59375 37.320312 -147.265625 30.0625 -147.265625 L 32.28125 -155.328125 L 142.421875 -155.328125 L 142.421875 -114.578125 L 134.765625 -114.578125 C 133.015625 -121.035156 131.0625 -126.316406 128.90625 -130.421875 C 126.757812 -134.523438 124.304688 -137.753906 121.546875 -140.109375 C 118.785156 -142.460938 115.691406 -144.109375 112.265625 -145.046875 C 108.835938 -145.984375 105.035156 -146.453125 100.859375 -146.453125 L 74.640625 -146.453125 L 58.90625 -86.546875 L 71.609375 -86.546875 C 75.242188 -86.546875 78.335938 -86.878906 80.890625 -87.546875 C 83.453125 -88.222656 85.773438 -89.398438 87.859375 -91.078125 C 89.941406 -92.765625 91.890625 -95.085938 93.703125 -98.046875 C 95.515625 -101.003906 97.5 -104.835938 99.65625 -109.546875 L 107.125 -109.546875 L 95.015625 -49.828125 L 86.953125 -49.828125 C 87.347656 -53.859375 87.546875 -57.351562 87.546875 -60.3125 C 87.546875 -66.363281 86.398438 -70.769531 84.109375 -73.53125 C 81.828125 -76.289062 77.59375 -77.671875 71.40625 -77.671875 L 56.28125 -77.671875 L 44.78125 -34.296875 C 43.570312 -29.859375 42.96875 -26.09375 42.96875 -23 C 42.96875 -18.15625 45.117188 -14.554688 49.421875 -12.203125 C 53.722656 -9.847656 61.117188 -8.671875 71.609375 -8.671875 C 79.273438 -8.671875 85.96875 -9.273438 91.6875 -10.484375 C 97.40625 -11.703125 102.378906 -13.617188 106.609375 -16.234375 C 110.847656 -18.859375 114.546875 -22.320312 117.703125 -26.625 C 120.867188 -30.925781 123.863281 -36.238281 126.6875 -42.5625 L 136.171875 -42.5625 L 120.4375 0 L -5.25 0 Z M -3.03125 -8.0625 "/></g></g></g><g fill="#303343" fill-opacity="1"><g transform="translate(273.428874, 195.877796)"><g><path d="M 111.15625 -33.484375 C 109.539062 -26.359375 108.734375 -21.179688 108.734375 -17.953125 C 108.734375 -14.054688 110.007812 -11.429688 112.5625 -10.078125 C 115.125 -8.734375 120.101562 -8.0625 127.5 -8.0625 L 125.484375 0 L 65.765625 0 L 67.78125 -8.0625 C 71.6875 -8.0625 74.914062 -8.363281 77.46875 -8.96875 C 80.019531 -9.582031 82.132812 -10.796875 83.8125 -12.609375 C 85.5 -14.421875 86.945312 -17.007812 88.15625 -20.375 C 89.363281 -23.738281 90.578125 -28.175781 91.796875 -33.6875 L 97.234375 -58.5 L 53.859375 -58.5 L 41.15625 -45.1875 C 35.632812 -39.40625 31.296875 -34.734375 28.140625 -31.171875 C 24.984375 -27.609375 22.597656 -24.75 20.984375 -22.59375 C 19.367188 -20.4375 18.359375 -18.820312 17.953125 -17.75 C 17.546875 -16.675781 17.34375 -15.734375 17.34375 -14.921875 C 17.34375 -12.367188 18.453125 -10.585938 20.671875 -9.578125 C 22.890625 -8.566406 26.828125 -8.0625 32.484375 -8.0625 L 30.46875 0 L -21.78125 0 L -19.765625 -8.0625 C -16.535156 -8.0625 -13.34375 -8.703125 -10.1875 -9.984375 C -7.03125 -11.265625 -3.535156 -13.382812 0.296875 -16.34375 C 4.128906 -19.300781 8.363281 -23.234375 13 -28.140625 C 17.644531 -33.046875 23.0625 -39.195312 29.25 -46.59375 L 122.25 -157.359375 L 139.203125 -157.359375 Z M 99.046875 -68.59375 L 115.59375 -131.125 L 114.78125 -131.125 L 62.53125 -68.59375 Z M 99.046875 -68.59375 "/></g></g></g><g fill="#303343" fill-opacity="1"><g transform="translate(394.063579, 195.877796)"><g><path d="M -2.828125 -8.0625 C 1.609375 -8.0625 5.269531 -8.398438 8.15625 -9.078125 C 11.050781 -9.753906 13.472656 -11 15.421875 -12.8125 C 17.378906 -14.625 19.03125 -17.039062 20.375 -20.0625 C 21.71875 -23.09375 22.992188 -27.03125 24.203125 -31.875 L 47 -121.046875 C 47.945312 -124.804688 48.6875 -128.03125 49.21875 -130.71875 C 49.757812 -133.414062 50.03125 -135.703125 50.03125 -137.578125 C 50.03125 -141.210938 48.851562 -143.734375 46.5 -145.140625 C 44.144531 -146.554688 40.144531 -147.265625 34.5 -147.265625 L 30.0625 -147.265625 L 32.28125 -155.328125 L 97.84375 -155.328125 L 95.625 -147.265625 C 91.1875 -147.265625 87.488281 -146.828125 84.53125 -145.953125 C 81.570312 -145.078125 79.015625 -143.425781 76.859375 -141 C 74.710938 -138.582031 72.796875 -135.222656 71.109375 -130.921875 C 69.429688 -126.617188 67.71875 -121.039062 65.96875 -114.1875 L 44.984375 -34.296875 C 43.773438 -29.859375 43.171875 -26.09375 43.171875 -23 C 43.171875 -18.15625 44.816406 -14.554688 48.109375 -12.203125 C 51.410156 -9.847656 57.296875 -8.671875 65.765625 -8.671875 C 73.835938 -8.671875 80.796875 -9.34375 86.640625 -10.6875 C 92.492188 -12.03125 97.640625 -14.210938 102.078125 -17.234375 C 106.515625 -20.265625 110.378906 -24.164062 113.671875 -28.9375 C 116.972656 -33.71875 120.035156 -39.601562 122.859375 -46.59375 L 132.34375 -46.59375 L 114.578125 0 L -5.046875 0 Z M -2.828125 -8.0625 "/></g></g></g><g fill="#303343" fill-opacity="1"><g transform="translate(481.210884, 195.877796)"><g><path d="M 82.109375 -33.890625 C 81.296875 -30.796875 80.550781 -28.140625 79.875 -25.921875 C 79.207031 -23.703125 78.875 -21.648438 78.875 -19.765625 C 78.875 -15.460938 80.625 -12.4375 84.125 -10.6875 C 87.625 -8.9375 93.609375 -8.0625 102.078125 -8.0625 L 99.65625 0 L 29.453125 0 L 31.671875 -8.0625 C 35.703125 -8.0625 39.195312 -8.332031 42.15625 -8.875 C 45.113281 -9.414062 47.769531 -10.492188 50.125 -12.109375 C 52.476562 -13.722656 54.492188 -16.109375 56.171875 -19.265625 C 57.859375 -22.421875 59.441406 -26.625 60.921875 -31.875 L 85.53125 -123.859375 C 86.738281 -128.703125 87.34375 -132.738281 87.34375 -135.96875 C 87.34375 -139.863281 86.46875 -142.648438 84.71875 -144.328125 C 82.976562 -146.015625 80.15625 -146.859375 76.25 -146.859375 C 64.414062 -146.859375 54.160156 -143.832031 45.484375 -137.78125 C 36.816406 -131.726562 29.585938 -123.253906 23.796875 -112.359375 L 15.734375 -112.359375 L 34.90625 -155.328125 L 169.65625 -155.328125 L 165.625 -112.359375 L 157.953125 -112.359375 C 157.953125 -125.273438 155.566406 -134.253906 150.796875 -139.296875 C 146.023438 -144.335938 138.929688 -146.859375 129.515625 -146.859375 C 126.148438 -146.859375 123.289062 -146.519531 120.9375 -145.84375 C 118.582031 -145.175781 116.5 -143.96875 114.6875 -142.21875 C 112.875 -140.46875 111.257812 -138.046875 109.84375 -134.953125 C 108.425781 -131.867188 107.113281 -127.90625 105.90625 -123.0625 Z M 82.109375 -33.890625 "/></g></g></g><g fill="#303343" fill-opacity="1"><g transform="translate(605.275024, 195.877796)"><g><path d="M 144.234375 -33.890625 C 142.617188 -27.972656 141.8125 -23.265625 141.8125 -19.765625 C 141.8125 -15.191406 143.257812 -12.097656 146.15625 -10.484375 C 149.050781 -8.867188 153.722656 -8.0625 160.171875 -8.0625 L 157.75 0 L 93.40625 0 L 95.625 -8.0625 C 99.65625 -8.0625 103.082031 -8.363281 105.90625 -8.96875 C 108.726562 -9.582031 111.179688 -10.757812 113.265625 -12.5 C 115.359375 -14.25 117.144531 -16.671875 118.625 -19.765625 C 120.101562 -22.859375 121.515625 -26.894531 122.859375 -31.875 L 133.953125 -74.03125 L 55.671875 -74.03125 L 45.1875 -33.890625 C 43.570312 -27.972656 42.765625 -23.265625 42.765625 -19.765625 C 42.765625 -15.191406 44.207031 -12.097656 47.09375 -10.484375 C 49.988281 -8.867188 54.734375 -8.0625 61.328125 -8.0625 L 58.703125 0 L -5.65625 0 L -3.421875 -8.0625 C 0.609375 -8.0625 4.035156 -8.363281 6.859375 -8.96875 C 9.679688 -9.582031 12.132812 -10.757812 14.21875 -12.5 C 16.300781 -14.25 18.082031 -16.671875 19.5625 -19.765625 C 21.039062 -22.859375 22.453125 -26.894531 23.796875 -31.875 L 47.40625 -121.046875 C 49.425781 -128.441406 50.4375 -133.953125 50.4375 -137.578125 C 50.4375 -141.753906 48.921875 -144.410156 45.890625 -145.546875 C 42.867188 -146.691406 37.726562 -147.265625 30.46875 -147.265625 L 32.6875 -155.328125 L 98.25 -155.328125 L 96.03125 -147.265625 C 91.59375 -147.265625 87.890625 -146.828125 84.921875 -145.953125 C 81.960938 -145.078125 79.40625 -143.425781 77.25 -141 C 75.101562 -138.582031 73.191406 -135.222656 71.515625 -130.921875 C 69.835938 -126.617188 68.125 -121.039062 66.375 -114.1875 L 58.5 -84.328125 L 136.78125 -84.328125 L 146.453125 -121.046875 C 148.472656 -128.441406 149.484375 -133.953125 149.484375 -137.578125 C 149.484375 -141.753906 147.96875 -144.410156 144.9375 -145.546875 C 141.914062 -146.691406 136.773438 -147.265625 129.515625 -147.265625 L 131.734375 -155.328125 L 197.296875 -155.328125 L 195.078125 -147.265625 C 190.640625 -147.265625 186.941406 -146.828125 183.984375 -145.953125 C 181.023438 -145.078125 178.46875 -143.425781 176.3125 -141 C 174.164062 -138.582031 172.25 -135.222656 170.5625 -130.921875 C 168.882812 -126.617188 167.171875 -121.039062 165.421875 -114.1875 Z M 144.234375 -33.890625 "/></g></g></g></g></g><g transform="matrix(1, 0, 0, 1, 595, 882)"><g clip-path="url(#9a37d2c692)"><g clip-path="url(#c49822b98b)"><path fill="#ac7260" d="M 1.511719 0.886719 L 308.476562 0.886719 L 308.476562 54.933594 L 1.511719 54.933594 L 1.511719 0.886719 " fill-opacity="1" fill-rule="nonzero"/></g><g fill="#f5f0e8" fill-opacity="1"><g transform="translate(5.61675, 42.410413)"><g><path d="M 11.328125 -28.21875 L 11.328125 0 L 2.609375 0 L 2.609375 -28.21875 Z M 11.328125 -28.21875 "/></g></g></g><g fill="#f5f0e8" fill-opacity="1"><g transform="translate(19.547916, 42.410413)"><g><path d="M 29.203125 -28.21875 L 29.203125 0 L 19.625 0 L 11.921875 -13.984375 L 10.125 -17.78125 L 10.046875 -17.78125 L 10.21875 -12.21875 L 10.21875 0 L 2.609375 0 L 2.609375 -28.21875 L 12.140625 -28.21875 L 19.84375 -14.234375 L 21.671875 -10.4375 L 21.71875 -10.4375 L 21.546875 -15.984375 L 21.546875 -28.21875 Z M 29.203125 -28.21875 "/></g></g></g><g fill="#f5f0e8" fill-opacity="1"><g transform="translate(51.341735, 42.410413)"><g/></g></g><g fill="#f5f0e8" fill-opacity="1"><g transform="translate(62.195942, 42.410413)"><g><path d="M 27.703125 -28.21875 L 27.703125 -21.671875 L 18.71875 -21.671875 L 18.71875 0 L 10 0 L 10 -21.671875 L 0.9375 -21.671875 L 0.9375 -28.21875 Z M 27.703125 -28.21875 "/></g></g></g><g fill="#f5f0e8" fill-opacity="1"><g transform="translate(90.870211, 42.410413)"><g><path d="M 29.234375 -28.21875 L 29.234375 0 L 20.484375 0 L 20.484375 -28.21875 Z M 11.328125 -28.21875 L 11.328125 0 L 2.609375 0 L 2.609375 -28.21875 Z M 25.265625 -17.484375 L 25.265625 -10.9375 L 6.84375 -10.9375 L 6.84375 -17.484375 Z M 25.265625 -17.484375 "/></g></g></g><g fill="#f5f0e8" fill-opacity="1"><g transform="translate(122.70677, 42.410413)"><g><path d="M 2.609375 0 L 2.609375 -28.21875 L 25.34375 -28.21875 L 25.34375 -21.671875 L 11.328125 -21.671875 L 11.328125 -17.09375 L 22.53125 -17.09375 L 22.53125 -11.03125 L 11.328125 -11.03125 L 11.328125 -6.546875 L 25.90625 -6.546875 L 25.90625 0 Z M 2.609375 0 "/></g></g></g><g fill="#f5f0e8" fill-opacity="1"><g transform="translate(149.54349, 42.410413)"><g/></g></g><g fill="#f5f0e8" fill-opacity="1"><g transform="translate(160.953366, 42.410413)"><g><path d="M 14.328125 -28.640625 C 17.003906 -28.640625 19.378906 -28.273438 21.453125 -27.546875 C 23.535156 -26.828125 25.363281 -25.722656 26.9375 -24.234375 L 23.125 -18.640625 C 21.84375 -19.722656 20.484375 -20.570312 19.046875 -21.1875 C 17.609375 -21.800781 16.019531 -22.109375 14.28125 -22.109375 C 13.394531 -22.109375 12.679688 -22.019531 12.140625 -21.84375 C 11.597656 -21.675781 11.207031 -21.441406 10.96875 -21.140625 C 10.726562 -20.835938 10.609375 -20.503906 10.609375 -20.140625 C 10.609375 -19.679688 10.882812 -19.304688 11.4375 -19.015625 C 11.988281 -18.734375 12.765625 -18.476562 13.765625 -18.25 L 18.046875 -17.265625 C 20.890625 -16.609375 23.007812 -15.644531 24.40625 -14.375 C 25.800781 -13.113281 26.5 -11.382812 26.5 -9.1875 C 26.5 -7.050781 25.960938 -5.269531 24.890625 -3.84375 C 23.828125 -2.414062 22.367188 -1.347656 20.515625 -0.640625 C 18.660156 0.0664062 16.566406 0.421875 14.234375 0.421875 C 12.378906 0.421875 10.578125 0.238281 8.828125 -0.125 C 7.078125 -0.5 5.472656 -1.035156 4.015625 -1.734375 C 2.566406 -2.429688 1.3125 -3.265625 0.25 -4.234375 L 4.015625 -10 C 4.785156 -9.257812 5.722656 -8.597656 6.828125 -8.015625 C 7.941406 -7.429688 9.125 -6.96875 10.375 -6.625 C 11.632812 -6.28125 12.847656 -6.109375 14.015625 -6.109375 C 14.847656 -6.109375 15.523438 -6.1875 16.046875 -6.34375 C 16.578125 -6.5 16.957031 -6.71875 17.1875 -7 C 17.414062 -7.289062 17.53125 -7.632812 17.53125 -8.03125 C 17.53125 -8.519531 17.34375 -8.910156 16.96875 -9.203125 C 16.601562 -9.503906 15.90625 -9.769531 14.875 -10 L 10.171875 -11.078125 C 8.628906 -11.410156 7.203125 -11.875 5.890625 -12.46875 C 4.585938 -13.070312 3.539062 -13.910156 2.75 -14.984375 C 1.96875 -16.054688 1.578125 -17.457031 1.578125 -19.1875 C 1.578125 -21.039062 2.078125 -22.679688 3.078125 -24.109375 C 4.078125 -25.535156 5.53125 -26.644531 7.4375 -27.4375 C 9.34375 -28.238281 11.640625 -28.640625 14.328125 -28.640625 Z M 14.328125 -28.640625 "/></g></g></g><g fill="#f5f0e8" fill-opacity="1"><g transform="translate(188.602022, 42.410413)"><g><path d="M 16.625 -28.21875 C 19.050781 -28.21875 21.109375 -27.835938 22.796875 -27.078125 C 24.492188 -26.328125 25.789062 -25.226562 26.6875 -23.78125 C 27.59375 -22.34375 28.046875 -20.585938 28.046875 -18.515625 C 28.046875 -16.429688 27.59375 -14.671875 26.6875 -13.234375 C 25.789062 -11.796875 24.492188 -10.695312 22.796875 -9.9375 C 21.109375 -9.1875 19.050781 -8.8125 16.625 -8.8125 L 11.328125 -8.8125 L 11.328125 0 L 2.609375 0 L 2.609375 -28.21875 Z M 15.21875 -15.140625 C 16.5 -15.140625 17.492188 -15.414062 18.203125 -15.96875 C 18.921875 -16.519531 19.28125 -17.367188 19.28125 -18.515625 C 19.28125 -19.648438 18.921875 -20.492188 18.203125 -21.046875 C 17.492188 -21.609375 16.5 -21.890625 15.21875 -21.890625 L 11.328125 -21.890625 L 11.328125 -15.140625 Z M 15.21875 -15.140625 "/></g></g></g><g fill="#f5f0e8" fill-opacity="1"><g transform="translate(218.002771, 42.410413)"><g><path d="M 11.328125 -28.21875 L 11.328125 0 L 2.609375 0 L 2.609375 -28.21875 Z M 11.328125 -28.21875 "/></g></g></g><g fill="#f5f0e8" fill-opacity="1"><g transform="translate(231.933913, 42.410413)"><g><path d="M 17.0625 -28.21875 C 20.5625 -28.21875 23.273438 -27.410156 25.203125 -25.796875 C 27.128906 -24.191406 28.09375 -22.046875 28.09375 -19.359375 C 28.09375 -16.367188 27.148438 -14.101562 25.265625 -12.5625 C 23.378906 -11.03125 20.671875 -10.265625 17.140625 -10.265625 L 16.28125 -9.796875 L 11.15625 -9.796875 L 11.15625 0 L 2.609375 0 L 2.609375 -28.21875 Z M 15.640625 -15.734375 C 16.867188 -15.734375 17.789062 -15.96875 18.40625 -16.4375 C 19.019531 -16.90625 19.328125 -17.679688 19.328125 -18.765625 C 19.328125 -19.847656 19.019531 -20.628906 18.40625 -21.109375 C 17.789062 -21.597656 16.867188 -21.84375 15.640625 -21.84375 L 11.15625 -21.84375 L 11.15625 -15.734375 Z M 20.8125 -13.890625 L 29.71875 0 L 20.171875 0 L 13.296875 -12.359375 Z M 20.8125 -13.890625 "/></g></g></g><g fill="#f5f0e8" fill-opacity="1"><g transform="translate(261.762012, 42.410413)"><g><path d="M 11.328125 -28.21875 L 11.328125 0 L 2.609375 0 L 2.609375 -28.21875 Z M 11.328125 -28.21875 "/></g></g></g><g fill="#f5f0e8" fill-opacity="1"><g transform="translate(275.693154, 42.410413)"><g><path d="M 27.703125 -28.21875 L 27.703125 -21.671875 L 18.71875 -21.671875 L 18.71875 0 L 10 0 L 10 -21.671875 L 0.9375 -21.671875 L 0.9375 -28.21875 Z M 27.703125 -28.21875 "/></g></g></g></g></g></svg>