<svg xmlns="http://www.w3.org/2000/svg" xmlns:xlink="http://www.w3.org/1999/xlink" width="2000" zoomAndPan="magnify" viewBox="0 0 1500 1499.999933" height="2000" preserveAspectRatio="xMidYMid meet" version="1.0"><defs><g/><clipPath id="1565b1cfc1"><rect x="0" width="805" y="0" height="251"/></clipPath><clipPath id="8479ed22c3"><path d="M 1 1 L 255.761719 1 L 255.761719 46.320312 L 1 46.320312 Z M 1 1 " clip-rule="nonzero"/></clipPath><clipPath id="1ad90faa0a"><rect x="0" width="256" y="0" height="47"/></clipPath></defs><rect x="-150" width="1800" fill="#ffffff" y="-149.999993" height="1799.99992" fill-opacity="1"/><rect x="-150" width="1800" fill="#f5f0e8" y="-149.999993" height="1799.99992" fill-opacity="1"/><g transform="matrix(1, 0, 0, 1, 371, 603)"><g clip-path="url(#1565b1cfc1)"><g fill="#303343" fill-opacity="1"><g transform="translate(7.110903, 196.423114)"><g><path d="M 144.234375 -33.890625 C 142.617188 -27.972656 141.8125 -23.265625 141.8125 -19.765625 C 141.8125 -15.191406 143.257812 -12.097656 146.15625 -10.484375 C 149.050781 -8.867188 153.722656 -8.0625 160.171875 -8.0625 L 157.75 0 L 93.40625 0 L 95.625 -8.0625 C 99.65625 -8.0625 103.082031 -8.363281 105.90625 -8.96875 C 108.726562 -9.582031 111.179688 -10.757812 113.265625 -12.5 C 115.359375 -14.25 117.144531 -16.671875 118.625 -19.765625 C 120.101562 -22.859375 121.515625 -26.894531 122.859375 -31.875 L 133.953125 -74.03125 L 55.671875 -74.03125 L 45.1875 -33.890625 C 43.570312 -27.972656 42.765625 -23.265625 42.765625 -19.765625 C 42.765625 -15.191406 44.207031 -12.097656 47.09375 -10.484375 C 49.988281 -8.867188 54.734375 -8.0625 61.328125 -8.0625 L 58.703125 0 L -5.65625 0 L -3.421875 -8.0625 C 0.609375 -8.0625 4.035156 -8.363281 6.859375 -8.96875 C 9.679688 -9.582031 12.132812 -10.757812 14.21875 -12.5 C 16.300781 -14.25 18.082031 -16.671875 19.5625 -19.765625 C 21.039062 -22.859375 22.453125 -26.894531 23.796875 -31.875 L 47.40625 -121.046875 C 49.425781 -128.441406 50.4375 -133.953125 50.4375 -137.578125 C 50.4375 -141.753906 48.921875 -144.410156 45.890625 -145.546875 C 42.867188 -146.691406 37.726562 -147.265625 30.46875 -147.265625 L 32.6875 -155.328125 L 98.25 -155.328125 L 96.03125 -147.265625 C 91.59375 -147.265625 87.890625 -146.828125 84.921875 -145.953125 C 81.960938 -145.078125 79.40625 -143.425781 77.25 -141 C 75.101562 -138.582031 73.191406 -135.222656 71.515625 -130.921875 C 69.835938 -126.617188 68.125 -121.039062 66.375 -114.1875 L 58.5 -84.328125 L 136.78125 -84.328125 L 146.453125 -121.046875 C 148.472656 -128.441406 149.484375 -133.953125 149.484375 -137.578125 C 149.484375 -141.753906 147.96875 -144.410156 144.9375 -145.546875 C 141.914062 -146.691406 136.773438 -147.265625 129.515625 -147.265625 L 131.734375 -155.328125 L 197.296875 -155.328125 L 195.078125 -147.265625 C 190.640625 -147.265625 186.941406 -146.828125 183.984375 -145.953125 C 181.023438 -145.078125 178.46875 -143.425781 176.3125 -141 C 174.164062 -138.582031 172.25 -135.222656 170.5625 -130.921875 C 168.882812 -126.617188 167.171875 -121.039062 165.421875 -114.1875 Z M 144.234375 -33.890625 "/></g></g></g><g fill="#303343" fill-opacity="1"><g transform="translate(157.601684, 196.423114)"><g><path d="M -3.03125 -8.0625 C 1.40625 -8.0625 5.070312 -8.398438 7.96875 -9.078125 C 10.863281 -9.753906 13.285156 -11 15.234375 -12.8125 C 17.179688 -14.625 18.828125 -17.039062 20.171875 -20.0625 C 21.515625 -23.09375 22.789062 -27.03125 24 -31.875 L 47.40625 -120.84375 C 48.34375 -124.332031 49.046875 -127.351562 49.515625 -129.90625 C 49.992188 -132.46875 50.234375 -134.691406 50.234375 -136.578125 C 50.234375 -141.015625 48.6875 -143.90625 45.59375 -145.25 C 42.5 -146.59375 37.320312 -147.265625 30.0625 -147.265625 L 32.28125 -155.328125 L 142.421875 -155.328125 L 142.421875 -114.578125 L 134.765625 -114.578125 C 133.015625 -121.035156 131.0625 -126.316406 128.90625 -130.421875 C 126.757812 -134.523438 124.304688 -137.753906 121.546875 -140.109375 C 118.785156 -142.460938 115.691406 -144.109375 112.265625 -145.046875 C 108.835938 -145.984375 105.035156 -146.453125 100.859375 -146.453125 L 74.640625 -146.453125 L 58.90625 -86.546875 L 71.609375 -86.546875 C 75.242188 -86.546875 78.335938 -86.878906 80.890625 -87.546875 C 83.453125 -88.222656 85.773438 -89.398438 87.859375 -91.078125 C 89.941406 -92.765625 91.890625 -95.085938 93.703125 -98.046875 C 95.515625 -101.003906 97.5 -104.835938 99.65625 -109.546875 L 107.125 -109.546875 L 95.015625 -49.828125 L 86.953125 -49.828125 C 87.347656 -53.859375 87.546875 -57.351562 87.546875 -60.3125 C 87.546875 -66.363281 86.398438 -70.769531 84.109375 -73.53125 C 81.828125 -76.289062 77.59375 -77.671875 71.40625 -77.671875 L 56.28125 -77.671875 L 44.78125 -34.296875 C 43.570312 -29.859375 42.96875 -26.09375 42.96875 -23 C 42.96875 -18.15625 45.117188 -14.554688 49.421875 -12.203125 C 53.722656 -9.847656 61.117188 -8.671875 71.609375 -8.671875 C 79.273438 -8.671875 85.96875 -9.273438 91.6875 -10.484375 C 97.40625 -11.703125 102.378906 -13.617188 106.609375 -16.234375 C 110.847656 -18.859375 114.546875 -22.320312 117.703125 -26.625 C 120.867188 -30.925781 123.863281 -36.238281 126.6875 -42.5625 L 136.171875 -42.5625 L 120.4375 0 L -5.25 0 Z M -3.03125 -8.0625 "/></g></g></g><g fill="#303343" fill-opacity="1"><g transform="translate(273.596541, 196.423114)"><g><path d="M 111.15625 -33.484375 C 109.539062 -26.359375 108.734375 -21.179688 108.734375 -17.953125 C 108.734375 -14.054688 110.007812 -11.429688 112.5625 -10.078125 C 115.125 -8.734375 120.101562 -8.0625 127.5 -8.0625 L 125.484375 0 L 65.765625 0 L 67.78125 -8.0625 C 71.6875 -8.0625 74.914062 -8.363281 77.46875 -8.96875 C 80.019531 -9.582031 82.132812 -10.796875 83.8125 -12.609375 C 85.5 -14.421875 86.945312 -17.007812 88.15625 -20.375 C 89.363281 -23.738281 90.578125 -28.175781 91.796875 -33.6875 L 97.234375 -58.5 L 53.859375 -58.5 L 41.15625 -45.1875 C 35.632812 -39.40625 31.296875 -34.734375 28.140625 -31.171875 C 24.984375 -27.609375 22.597656 -24.75 20.984375 -22.59375 C 19.367188 -20.4375 18.359375 -18.820312 17.953125 -17.75 C 17.546875 -16.675781 17.34375 -15.734375 17.34375 -14.921875 C 17.34375 -12.367188 18.453125 -10.585938 20.671875 -9.578125 C 22.890625 -8.566406 26.828125 -8.0625 32.484375 -8.0625 L 30.46875 0 L -21.78125 0 L -19.765625 -8.0625 C -16.535156 -8.0625 -13.34375 -8.703125 -10.1875 -9.984375 C -7.03125 -11.265625 -3.535156 -13.382812 0.296875 -16.34375 C 4.128906 -19.300781 8.363281 -23.234375 13 -28.140625 C 17.644531 -33.046875 23.0625 -39.195312 29.25 -46.59375 L 122.25 -157.359375 L 139.203125 -157.359375 Z M 99.046875 -68.59375 L 115.59375 -131.125 L 114.78125 -131.125 L 62.53125 -68.59375 Z M 99.046875 -68.59375 "/></g></g></g><g fill="#303343" fill-opacity="1"><g transform="translate(394.231247, 196.423114)"><g><path d="M -2.828125 -8.0625 C 1.609375 -8.0625 5.269531 -8.398438 8.15625 -9.078125 C 11.050781 -9.753906 13.472656 -11 15.421875 -12.8125 C 17.378906 -14.625 19.03125 -17.039062 20.375 -20.0625 C 21.71875 -23.09375 22.992188 -27.03125 24.203125 -31.875 L 47 -121.046875 C 47.945312 -124.804688 48.6875 -128.03125 49.21875 -130.71875 C 49.757812 -133.414062 50.03125 -135.703125 50.03125 -137.578125 C 50.03125 -141.210938 48.851562 -143.734375 46.5 -145.140625 C 44.144531 -146.554688 40.144531 -147.265625 34.5 -147.265625 L 30.0625 -147.265625 L 32.28125 -155.328125 L 97.84375 -155.328125 L 95.625 -147.265625 C 91.1875 -147.265625 87.488281 -146.828125 84.53125 -145.953125 C 81.570312 -145.078125 79.015625 -143.425781 76.859375 -141 C 74.710938 -138.582031 72.796875 -135.222656 71.109375 -130.921875 C 69.429688 -126.617188 67.71875 -121.039062 65.96875 -114.1875 L 44.984375 -34.296875 C 43.773438 -29.859375 43.171875 -26.09375 43.171875 -23 C 43.171875 -18.15625 44.816406 -14.554688 48.109375 -12.203125 C 51.410156 -9.847656 57.296875 -8.671875 65.765625 -8.671875 C 73.835938 -8.671875 80.796875 -9.34375 86.640625 -10.6875 C 92.492188 -12.03125 97.640625 -14.210938 102.078125 -17.234375 C 106.515625 -20.265625 110.378906 -24.164062 113.671875 -28.9375 C 116.972656 -33.71875 120.035156 -39.601562 122.859375 -46.59375 L 132.34375 -46.59375 L 114.578125 0 L -5.046875 0 Z M -2.828125 -8.0625 "/></g></g></g><g fill="#303343" fill-opacity="1"><g transform="translate(481.378552, 196.423114)"><g><path d="M 82.109375 -33.890625 C 81.296875 -30.796875 80.550781 -28.140625 79.875 -25.921875 C 79.207031 -23.703125 78.875 -21.648438 78.875 -19.765625 C 78.875 -15.460938 80.625 -12.4375 84.125 -10.6875 C 87.625 -8.9375 93.609375 -8.0625 102.078125 -8.0625 L 99.65625 0 L 29.453125 0 L 31.671875 -8.0625 C 35.703125 -8.0625 39.195312 -8.332031 42.15625 -8.875 C 45.113281 -9.414062 47.769531 -10.492188 50.125 -12.109375 C 52.476562 -13.722656 54.492188 -16.109375 56.171875 -19.265625 C 57.859375 -22.421875 59.441406 -26.625 60.921875 -31.875 L 85.53125 -123.859375 C 86.738281 -128.703125 87.34375 -132.738281 87.34375 -135.96875 C 87.34375 -139.863281 86.46875 -142.648438 84.71875 -144.328125 C 82.976562 -146.015625 80.15625 -146.859375 76.25 -146.859375 C 64.414062 -146.859375 54.160156 -143.832031 45.484375 -137.78125 C 36.816406 -131.726562 29.585938 -123.253906 23.796875 -112.359375 L 15.734375 -112.359375 L 34.90625 -155.328125 L 169.65625 -155.328125 L 165.625 -112.359375 L 157.953125 -112.359375 C 157.953125 -125.273438 155.566406 -134.253906 150.796875 -139.296875 C 146.023438 -144.335938 138.929688 -146.859375 129.515625 -146.859375 C 126.148438 -146.859375 123.289062 -146.519531 120.9375 -145.84375 C 118.582031 -145.175781 116.5 -143.96875 114.6875 -142.21875 C 112.875 -140.46875 111.257812 -138.046875 109.84375 -134.953125 C 108.425781 -131.867188 107.113281 -127.90625 105.90625 -123.0625 Z M 82.109375 -33.890625 "/></g></g></g><g fill="#303343" fill-opacity="1"><g transform="translate(605.442692, 196.423114)"><g><path d="M 144.234375 -33.890625 C 142.617188 -27.972656 141.8125 -23.265625 141.8125 -19.765625 C 141.8125 -15.191406 143.257812 -12.097656 146.15625 -10.484375 C 149.050781 -8.867188 153.722656 -8.0625 160.171875 -8.0625 L 157.75 0 L 93.40625 0 L 95.625 -8.0625 C 99.65625 -8.0625 103.082031 -8.363281 105.90625 -8.96875 C 108.726562 -9.582031 111.179688 -10.757812 113.265625 -12.5 C 115.359375 -14.25 117.144531 -16.671875 118.625 -19.765625 C 120.101562 -22.859375 121.515625 -26.894531 122.859375 -31.875 L 133.953125 -74.03125 L 55.671875 -74.03125 L 45.1875 -33.890625 C 43.570312 -27.972656 42.765625 -23.265625 42.765625 -19.765625 C 42.765625 -15.191406 44.207031 -12.097656 47.09375 -10.484375 C 49.988281 -8.867188 54.734375 -8.0625 61.328125 -8.0625 L 58.703125 0 L -5.65625 0 L -3.421875 -8.0625 C 0.609375 -8.0625 4.035156 -8.363281 6.859375 -8.96875 C 9.679688 -9.582031 12.132812 -10.757812 14.21875 -12.5 C 16.300781 -14.25 18.082031 -16.671875 19.5625 -19.765625 C 21.039062 -22.859375 22.453125 -26.894531 23.796875 -31.875 L 47.40625 -121.046875 C 49.425781 -128.441406 50.4375 -133.953125 50.4375 -137.578125 C 50.4375 -141.753906 48.921875 -144.410156 45.890625 -145.546875 C 42.867188 -146.691406 37.726562 -147.265625 30.46875 -147.265625 L 32.6875 -155.328125 L 98.25 -155.328125 L 96.03125 -147.265625 C 91.59375 -147.265625 87.890625 -146.828125 84.921875 -145.953125 C 81.960938 -145.078125 79.40625 -143.425781 77.25 -141 C 75.101562 -138.582031 73.191406 -135.222656 71.515625 -130.921875 C 69.835938 -126.617188 68.125 -121.039062 66.375 -114.1875 L 58.5 -84.328125 L 136.78125 -84.328125 L 146.453125 -121.046875 C 148.472656 -128.441406 149.484375 -133.953125 149.484375 -137.578125 C 149.484375 -141.753906 147.96875 -144.410156 144.9375 -145.546875 C 141.914062 -146.691406 136.773438 -147.265625 129.515625 -147.265625 L 131.734375 -155.328125 L 197.296875 -155.328125 L 195.078125 -147.265625 C 190.640625 -147.265625 186.941406 -146.828125 183.984375 -145.953125 C 181.023438 -145.078125 178.46875 -143.425781 176.3125 -141 C 174.164062 -138.582031 172.25 -135.222656 170.5625 -130.921875 C 168.882812 -126.617188 167.171875 -121.039062 165.421875 -114.1875 Z M 144.234375 -33.890625 "/></g></g></g></g></g><g transform="matrix(1, 0, 0, 1, 818, 726)"><g clip-path="url(#1ad90faa0a)"><g clip-path="url(#8479ed22c3)"><path fill="#ac7260" d="M 1.433594 1.289062 L 255.410156 1.289062 L 255.410156 46.007812 L 1.433594 46.007812 L 1.433594 1.289062 " fill-opacity="1" fill-rule="nonzero"/></g><g fill="#f5f0e8" fill-opacity="1"><g transform="translate(4.831112, 35.645432)"><g><path d="M 9.375 -23.34375 L 9.375 0 L 2.15625 0 L 2.15625 -23.34375 Z M 9.375 -23.34375 "/></g></g></g><g fill="#f5f0e8" fill-opacity="1"><g transform="translate(16.357326, 35.645432)"><g><path d="M 24.15625 -23.34375 L 24.15625 0 L 16.234375 0 L 9.859375 -11.5625 L 8.375 -14.703125 L 8.3125 -14.703125 L 8.453125 -10.109375 L 8.453125 0 L 2.15625 0 L 2.15625 -23.34375 L 10.046875 -23.34375 L 16.40625 -11.78125 L 17.921875 -8.625 L 17.96875 -8.625 L 17.828125 -13.21875 L 17.828125 -23.34375 Z M 24.15625 -23.34375 "/></g></g></g><g fill="#f5f0e8" fill-opacity="1"><g transform="translate(42.662545, 35.645432)"><g/></g></g><g fill="#f5f0e8" fill-opacity="1"><g transform="translate(51.642979, 35.645432)"><g><path d="M 22.90625 -23.34375 L 22.90625 -17.921875 L 15.484375 -17.921875 L 15.484375 0 L 8.28125 0 L 8.28125 -17.921875 L 0.78125 -17.921875 L 0.78125 -23.34375 Z M 22.90625 -23.34375 "/></g></g></g><g fill="#f5f0e8" fill-opacity="1"><g transform="translate(75.367179, 35.645432)"><g><path d="M 24.1875 -23.34375 L 24.1875 0 L 16.9375 0 L 16.9375 -23.34375 Z M 9.375 -23.34375 L 9.375 0 L 2.15625 0 L 2.15625 -23.34375 Z M 20.890625 -14.46875 L 20.890625 -9.046875 L 5.65625 -9.046875 L 5.65625 -14.46875 Z M 20.890625 -14.46875 "/></g></g></g><g fill="#f5f0e8" fill-opacity="1"><g transform="translate(101.707759, 35.645432)"><g><path d="M 2.15625 0 L 2.15625 -23.34375 L 20.96875 -23.34375 L 20.96875 -17.921875 L 9.375 -17.921875 L 9.375 -14.140625 L 18.640625 -14.140625 L 18.640625 -9.125 L 9.375 -9.125 L 9.375 -5.40625 L 21.421875 -5.40625 L 21.421875 0 Z M 2.15625 0 "/></g></g></g><g fill="#f5f0e8" fill-opacity="1"><g transform="translate(123.911629, 35.645432)"><g/></g></g><g fill="#f5f0e8" fill-opacity="1"><g transform="translate(133.351806, 35.645432)"><g><path d="M 11.84375 -23.6875 C 14.0625 -23.6875 16.03125 -23.382812 17.75 -22.78125 C 19.46875 -22.1875 20.976562 -21.273438 22.28125 -20.046875 L 19.125 -15.421875 C 18.0625 -16.316406 16.9375 -17.015625 15.75 -17.515625 C 14.5625 -18.023438 13.25 -18.28125 11.8125 -18.28125 C 11.082031 -18.28125 10.492188 -18.207031 10.046875 -18.0625 C 9.597656 -17.925781 9.269531 -17.734375 9.0625 -17.484375 C 8.863281 -17.234375 8.765625 -16.957031 8.765625 -16.65625 C 8.765625 -16.28125 8.992188 -15.972656 9.453125 -15.734375 C 9.910156 -15.492188 10.554688 -15.28125 11.390625 -15.09375 L 14.921875 -14.28125 C 17.273438 -13.738281 19.03125 -12.941406 20.1875 -11.890625 C 21.34375 -10.847656 21.921875 -9.421875 21.921875 -7.609375 C 21.921875 -5.835938 21.476562 -4.363281 20.59375 -3.1875 C 19.707031 -2.007812 18.5 -1.125 16.96875 -0.53125 C 15.4375 0.0625 13.707031 0.359375 11.78125 0.359375 C 10.238281 0.359375 8.742188 0.207031 7.296875 -0.09375 C 5.847656 -0.40625 4.519531 -0.847656 3.3125 -1.421875 C 2.113281 -2.003906 1.082031 -2.695312 0.21875 -3.5 L 3.328125 -8.28125 C 3.960938 -7.664062 4.738281 -7.113281 5.65625 -6.625 C 6.570312 -6.144531 7.546875 -5.765625 8.578125 -5.484375 C 9.617188 -5.203125 10.625 -5.0625 11.59375 -5.0625 C 12.28125 -5.0625 12.84375 -5.125 13.28125 -5.25 C 13.71875 -5.382812 14.03125 -5.566406 14.21875 -5.796875 C 14.40625 -6.035156 14.5 -6.316406 14.5 -6.640625 C 14.5 -7.046875 14.34375 -7.367188 14.03125 -7.609375 C 13.726562 -7.859375 13.15625 -8.082031 12.3125 -8.28125 L 8.421875 -9.15625 C 7.140625 -9.4375 5.957031 -9.820312 4.875 -10.3125 C 3.789062 -10.8125 2.925781 -11.503906 2.28125 -12.390625 C 1.632812 -13.273438 1.3125 -14.4375 1.3125 -15.875 C 1.3125 -17.40625 1.722656 -18.757812 2.546875 -19.9375 C 3.367188 -21.113281 4.566406 -22.03125 6.140625 -22.6875 C 7.722656 -23.351562 9.625 -23.6875 11.84375 -23.6875 Z M 11.84375 -23.6875 "/></g></g></g><g fill="#f5f0e8" fill-opacity="1"><g transform="translate(156.227446, 35.645432)"><g><path d="M 13.75 -23.34375 C 15.757812 -23.34375 17.460938 -23.03125 18.859375 -22.40625 C 20.265625 -21.78125 21.335938 -20.867188 22.078125 -19.671875 C 22.828125 -18.484375 23.203125 -17.03125 23.203125 -15.3125 C 23.203125 -13.59375 22.828125 -12.132812 22.078125 -10.9375 C 21.335938 -9.75 20.265625 -8.84375 18.859375 -8.21875 C 17.460938 -7.59375 15.757812 -7.28125 13.75 -7.28125 L 9.375 -7.28125 L 9.375 0 L 2.15625 0 L 2.15625 -23.34375 Z M 12.59375 -12.515625 C 13.644531 -12.515625 14.46875 -12.742188 15.0625 -13.203125 C 15.65625 -13.660156 15.953125 -14.363281 15.953125 -15.3125 C 15.953125 -16.25 15.65625 -16.945312 15.0625 -17.40625 C 14.46875 -17.875 13.644531 -18.109375 12.59375 -18.109375 L 9.375 -18.109375 L 9.375 -12.515625 Z M 12.59375 -12.515625 "/></g></g></g><g fill="#f5f0e8" fill-opacity="1"><g transform="translate(180.552713, 35.645432)"><g><path d="M 9.375 -23.34375 L 9.375 0 L 2.15625 0 L 2.15625 -23.34375 Z M 9.375 -23.34375 "/></g></g></g><g fill="#f5f0e8" fill-opacity="1"><g transform="translate(192.078907, 35.645432)"><g><path d="M 14.109375 -23.34375 C 17.003906 -23.34375 19.25 -22.675781 20.84375 -21.34375 C 22.4375 -20.007812 23.234375 -18.234375 23.234375 -16.015625 C 23.234375 -13.546875 22.453125 -11.671875 20.890625 -10.390625 C 19.335938 -9.117188 17.097656 -8.484375 14.171875 -8.484375 L 13.46875 -8.09375 L 9.234375 -8.09375 L 9.234375 0 L 2.15625 0 L 2.15625 -23.34375 Z M 12.9375 -13.015625 C 13.957031 -13.015625 14.71875 -13.207031 15.21875 -13.59375 C 15.726562 -13.976562 15.984375 -14.617188 15.984375 -15.515625 C 15.984375 -16.410156 15.726562 -17.054688 15.21875 -17.453125 C 14.71875 -17.859375 13.957031 -18.0625 12.9375 -18.0625 L 9.234375 -18.0625 L 9.234375 -13.015625 Z M 17.21875 -11.484375 L 24.578125 0 L 16.6875 0 L 11 -10.21875 Z M 17.21875 -11.484375 "/></g></g></g><g fill="#f5f0e8" fill-opacity="1"><g transform="translate(216.75775, 35.645432)"><g><path d="M 9.375 -23.34375 L 9.375 0 L 2.15625 0 L 2.15625 -23.34375 Z M 9.375 -23.34375 "/></g></g></g><g fill="#f5f0e8" fill-opacity="1"><g transform="translate(228.283944, 35.645432)"><g><path d="M 22.90625 -23.34375 L 22.90625 -17.921875 L 15.484375 -17.921875 L 15.484375 0 L 8.28125 0 L 8.28125 -17.921875 L 0.78125 -17.921875 L 0.78125 -23.34375 Z M 22.90625 -23.34375 "/></g></g></g></g></g></svg>